<svg xmlns="http://www.w3.org/2000/svg" xmlns:xlink="http://www.w3.org/1999/xlink" width="40" zoomAndPan="magnify" viewBox="0 0 30 30.000001" height="40" preserveAspectRatio="xMidYMid meet" version="1.0"><defs><clipPath id="61eab4def0"><path d="M 0.484375 2 L 10 2 L 10 25 L 0.484375 25 Z M 0.484375 2 " clip-rule="nonzero"/></clipPath><clipPath id="9046880c41"><path d="M 8 0 L 28.789062 0 L 28.789062 26 L 8 26 Z M 8 0 " clip-rule="nonzero"/></clipPath><clipPath id="3eca89958a"><path d="M 9 24 L 13 24 L 13 29.03125 L 9 29.03125 Z M 9 24 " clip-rule="nonzero"/></clipPath><clipPath id="9b37cd7392"><path d="M 24 24 L 28 24 L 28 29.03125 L 24 29.03125 Z M 24 24 " clip-rule="nonzero"/></clipPath></defs><path fill="#000000" d="M 20.550781 13.976562 C 20.273438 13.976562 20.050781 13.753906 20.050781 13.476562 L 20.050781 12.4375 C 20.050781 12.164062 20.273438 11.9375 20.550781 11.9375 C 20.824219 11.9375 21.046875 12.164062 21.046875 12.4375 L 21.046875 13.476562 C 21.046875 13.753906 20.824219 13.976562 20.550781 13.976562 Z M 20.550781 13.976562 " fill-opacity="1" fill-rule="nonzero"/><path fill="#000000" d="M 2.796875 13.976562 C 2.519531 13.976562 2.296875 13.753906 2.296875 13.476562 L 2.296875 12.4375 C 2.296875 12.164062 2.519531 11.9375 2.796875 11.9375 C 3.070312 11.9375 3.292969 12.164062 3.292969 12.4375 L 3.292969 13.476562 C 3.292969 13.753906 3.070312 13.976562 2.796875 13.976562 Z M 2.796875 13.976562 " fill-opacity="1" fill-rule="nonzero"/><g clip-path="url(#61eab4def0)"><path fill="#000000" d="M 1.8125 24.175781 C 1.496094 24.175781 1.183594 24.070312 0.941406 23.871094 C 0.660156 23.640625 0.503906 23.3125 0.503906 22.96875 L 0.503906 3.285156 C 0.503906 2.621094 1.089844 2.078125 1.8125 2.078125 L 8.707031 2.078125 C 8.984375 2.078125 9.207031 2.300781 9.207031 2.578125 L 9.207031 22.304688 C 9.207031 22.542969 9.039062 22.746094 8.804688 22.792969 L 2.09375 24.148438 C 2 24.167969 1.90625 24.179688 1.8125 24.179688 Z M 1.8125 3.078125 C 1.632812 3.078125 1.5 3.1875 1.5 3.285156 L 1.5 22.96875 C 1.5 23.027344 1.539062 23.070312 1.570312 23.097656 C 1.636719 23.152344 1.753906 23.195312 1.894531 23.167969 L 8.210938 21.890625 L 8.210938 3.078125 Z M 8.707031 22.304688 Z M 8.707031 22.304688 " fill-opacity="1" fill-rule="nonzero"/></g><path fill="#000000" d="M 18.191406 25.917969 C 17.917969 25.917969 17.695312 25.691406 17.695312 25.417969 L 17.695312 0.5 C 17.695312 0.222656 17.917969 0 18.191406 0 C 18.46875 0 18.691406 0.222656 18.691406 0.5 L 18.691406 25.417969 C 18.691406 25.691406 18.46875 25.917969 18.191406 25.917969 Z M 18.191406 25.917969 " fill-opacity="1" fill-rule="nonzero"/><g clip-path="url(#9046880c41)"><path fill="#000000" d="M 26.21875 25.917969 L 10.757812 25.917969 C 9.351562 25.917969 8.210938 24.769531 8.210938 23.355469 L 8.210938 2.253906 C 8.210938 1.011719 9.214844 0 10.453125 0 L 26.523438 0 C 27.761719 0 28.769531 1.011719 28.769531 2.253906 L 28.769531 23.355469 C 28.769531 24.769531 27.625 25.917969 26.21875 25.917969 Z M 10.453125 1 C 9.765625 1 9.207031 1.5625 9.207031 2.253906 L 9.207031 23.355469 C 9.207031 24.21875 9.902344 24.917969 10.757812 24.917969 L 26.21875 24.917969 C 27.074219 24.917969 27.773438 24.214844 27.773438 23.355469 L 27.773438 2.253906 C 27.773438 1.5625 27.210938 1 26.523438 1 Z M 10.453125 1 " fill-opacity="1" fill-rule="nonzero"/></g><g clip-path="url(#3eca89958a)"><path fill="#000000" d="M 11.078125 29.03125 L 9.894531 29.03125 C 9.617188 29.03125 9.394531 28.808594 9.394531 28.53125 L 9.394531 25.417969 C 9.394531 25.140625 9.617188 24.917969 9.894531 24.917969 C 10.167969 24.917969 10.390625 25.140625 10.390625 25.417969 L 10.390625 28.03125 L 10.667969 28.03125 L 11.183594 25.324219 C 11.234375 25.050781 11.496094 24.871094 11.765625 24.925781 C 12.035156 24.976562 12.214844 25.238281 12.160156 25.511719 L 11.570312 28.625 C 11.523438 28.863281 11.316406 29.03125 11.078125 29.03125 Z M 11.078125 29.03125 " fill-opacity="1" fill-rule="nonzero"/></g><g clip-path="url(#9b37cd7392)"><path fill="#000000" d="M 27.085938 29.03125 L 25.898438 29.03125 C 25.660156 29.03125 25.457031 28.863281 25.410156 28.625 L 24.816406 25.511719 C 24.765625 25.238281 24.941406 24.976562 25.214844 24.925781 C 25.484375 24.875 25.746094 25.050781 25.796875 25.324219 L 26.3125 28.03125 L 26.585938 28.03125 L 26.585938 25.417969 C 26.585938 25.140625 26.8125 24.917969 27.085938 24.917969 C 27.359375 24.917969 27.582031 25.140625 27.582031 25.417969 L 27.582031 28.53125 C 27.582031 28.808594 27.359375 29.03125 27.085938 29.03125 Z M 27.085938 29.03125 " fill-opacity="1" fill-rule="nonzero"/></g><path fill="#000000" d="M 14.042969 22.804688 L 12.855469 22.804688 C 12.582031 22.804688 12.359375 22.578125 12.359375 22.304688 C 12.359375 22.027344 12.582031 21.800781 12.855469 21.800781 L 14.042969 21.800781 C 14.316406 21.800781 14.539062 22.027344 14.539062 22.304688 C 14.539062 22.578125 14.316406 22.804688 14.042969 22.804688 Z M 14.042969 22.804688 " fill-opacity="1" fill-rule="nonzero"/><path fill="#000000" d="M 18.191406 19.632812 L 8.707031 19.632812 C 8.433594 19.632812 8.210938 19.410156 8.210938 19.132812 C 8.210938 18.859375 8.433594 18.632812 8.707031 18.632812 L 18.191406 18.632812 C 18.46875 18.632812 18.691406 18.859375 18.691406 19.132812 C 18.691406 19.410156 18.46875 19.632812 18.191406 19.632812 Z M 18.191406 19.632812 " fill-opacity="1" fill-rule="nonzero"/><path fill="#000000" d="M 15.074219 10.007812 L 11.070312 10.007812 C 10.8125 10.007812 10.605469 9.832031 10.570312 9.589844 C 10.539062 9.351562 10.683594 9.136719 10.925781 9.070312 C 12.636719 8.582031 12.957031 8.164062 13.011719 8.050781 C 13.117188 7.839844 13.148438 7.664062 13.101562 7.566406 C 13.050781 7.46875 12.90625 7.441406 12.90625 7.4375 C 12.742188 7.414062 12.632812 7.261719 12.65625 7.097656 C 12.683594 6.933594 12.835938 6.820312 13 6.84375 C 13.046875 6.851562 13.441406 6.921875 13.628906 7.285156 C 13.773438 7.5625 13.746094 7.910156 13.550781 8.3125 C 13.515625 8.378906 13.472656 8.445312 13.421875 8.507812 L 15.230469 9.070312 C 15.46875 9.144531 15.609375 9.359375 15.574219 9.59375 C 15.535156 9.832031 15.328125 10.003906 15.074219 10.003906 Z M 11.851562 9.40625 L 14.28125 9.40625 L 13.070312 9.03125 C 13.007812 9.011719 12.957031 8.972656 12.921875 8.921875 C 12.644531 9.089844 12.289062 9.25 11.851562 9.40625 Z M 11.851562 9.40625 " fill-opacity="1" fill-rule="nonzero"/><path fill="#000000" d="M 15.269531 15.058594 L 11.261719 15.058594 C 11.003906 15.058594 10.796875 14.882812 10.761719 14.644531 C 10.730469 14.40625 10.875 14.191406 11.117188 14.121094 C 12.832031 13.632812 13.148438 13.21875 13.203125 13.101562 C 13.308594 12.890625 13.339844 12.714844 13.292969 12.621094 C 13.242188 12.523438 13.097656 12.492188 13.097656 12.492188 C 12.933594 12.464844 12.824219 12.3125 12.851562 12.148438 C 12.875 11.984375 13.03125 11.875 13.191406 11.898438 C 13.238281 11.90625 13.632812 11.976562 13.820312 12.339844 C 13.964844 12.617188 13.9375 12.960938 13.742188 13.367188 C 13.707031 13.429688 13.667969 13.496094 13.613281 13.5625 L 15.421875 14.125 C 15.660156 14.199219 15.800781 14.414062 15.765625 14.648438 C 15.726562 14.886719 15.519531 15.058594 15.265625 15.058594 Z M 12.042969 14.460938 L 14.472656 14.460938 L 13.261719 14.082031 C 13.199219 14.0625 13.148438 14.023438 13.113281 13.976562 C 12.835938 14.144531 12.480469 14.304688 12.042969 14.460938 Z M 12.042969 14.460938 " fill-opacity="1" fill-rule="nonzero"/><path fill="#000000" d="M 18.015625 7.746094 L 8.832031 7.746094 C 8.667969 7.746094 8.535156 7.609375 8.535156 7.445312 C 8.535156 7.277344 8.667969 7.144531 8.832031 7.144531 L 18.015625 7.144531 C 18.179688 7.144531 18.3125 7.277344 18.3125 7.445312 C 18.3125 7.609375 18.179688 7.746094 18.015625 7.746094 Z M 18.015625 7.746094 " fill-opacity="1" fill-rule="nonzero"/><path fill="#000000" d="M 17.855469 12.71875 L 8.675781 12.71875 C 8.507812 12.71875 8.375 12.582031 8.375 12.417969 C 8.375 12.25 8.507812 12.117188 8.675781 12.117188 L 17.855469 12.117188 C 18.019531 12.117188 18.152344 12.25 18.152344 12.417969 C 18.152344 12.582031 18.019531 12.71875 17.855469 12.71875 Z M 17.855469 12.71875 " fill-opacity="1" fill-rule="nonzero"/></svg>