<svg xmlns="http://www.w3.org/2000/svg" xmlns:xlink="http://www.w3.org/1999/xlink" width="64" zoomAndPan="magnify" viewBox="0 0 48 48" height="64" preserveAspectRatio="xMidYMid meet" version="1.0"><defs><clipPath id="311a412d84"><path d="M 0.488281 0.527344 L 47 0.527344 L 47 46.816406 L 0.488281 46.816406 Z M 0.488281 0.527344 " clip-rule="nonzero"/></clipPath></defs><g clip-path="url(#311a412d84)"><path fill="#040606" d="M 43.652344 39.101562 C 43.652344 41.652344 41.589844 43.730469 39.054688 43.730469 L 23.734375 43.730469 C 24.699219 42.4375 25.273438 40.835938 25.273438 39.101562 L 25.273438 37.558594 L 43.652344 37.558594 Z M 22.203125 36.011719 L 22.203125 39.101562 C 22.203125 41.652344 20.144531 43.730469 17.609375 43.730469 C 15.078125 43.730469 13.019531 41.652344 13.019531 39.101562 L 13.019531 6.699219 C 13.019531 5.570312 12.691406 4.527344 12.164062 3.613281 L 37.523438 3.613281 C 38.367188 3.613281 39.054688 4.308594 39.054688 5.15625 L 39.054688 10.03125 C 38.519531 10.195312 38 10.4375 37.523438 10.757812 C 36.582031 10.125 35.496094 9.785156 34.351562 9.785156 C 32.71875 9.785156 31.191406 10.476562 30.050781 11.734375 C 27.777344 14.238281 27.777344 18.308594 30.050781 20.808594 L 36.394531 27.796875 C 36.683594 28.117188 37.089844 28.304688 37.523438 28.304688 C 37.957031 28.304688 38.367188 28.117188 38.652344 27.796875 L 39.054688 27.359375 L 39.054688 34.472656 L 23.738281 34.472656 C 22.894531 34.472656 22.203125 35.160156 22.203125 36.015625 Z M 3.828125 6.699219 C 3.828125 5 5.199219 3.613281 6.890625 3.613281 C 8.578125 3.613281 9.953125 5 9.953125 6.699219 L 9.953125 15.957031 L 3.828125 15.957031 Z M 42.738281 18.722656 L 37.523438 24.472656 L 32.308594 18.722656 C 31.101562 17.394531 31.101562 15.144531 32.308594 13.816406 C 32.863281 13.207031 33.585938 12.867188 34.351562 12.867188 C 35.117188 12.867188 35.839844 13.207031 36.394531 13.816406 C 36.972656 14.453125 38.074219 14.453125 38.65625 13.816406 C 39.207031 13.207031 39.933594 12.867188 40.699219 12.867188 C 41.460938 12.867188 42.183594 13.207031 42.738281 13.816406 C 43.945312 15.144531 43.945312 17.394531 42.738281 18.722656 Z M 45.179688 34.472656 L 42.117188 34.472656 L 42.117188 23.980469 L 44.996094 20.808594 C 47.269531 18.304688 47.269531 14.238281 44.996094 11.734375 C 44.203125 10.855469 43.207031 10.269531 42.117188 9.984375 L 42.117188 5.15625 C 42.117188 2.605469 40.058594 0.527344 37.523438 0.527344 L 6.890625 0.527344 C 3.511719 0.527344 0.761719 3.296875 0.761719 6.699219 L 0.761719 17.5 C 0.761719 18.351562 1.449219 19.042969 2.296875 19.042969 L 9.953125 19.042969 L 9.953125 39.101562 C 9.953125 43.355469 13.390625 46.816406 17.609375 46.816406 C 17.96875 46.816406 18.328125 46.789062 18.671875 46.742188 C 18.824219 46.789062 18.980469 46.816406 19.144531 46.816406 L 39.054688 46.816406 C 43.28125 46.816406 46.714844 43.355469 46.714844 39.101562 L 46.714844 36.015625 C 46.714844 35.160156 46.03125 34.472656 45.179688 34.472656 " fill-opacity="1" fill-rule="nonzero"/></g><path fill="#040606" d="M 17.609375 12.871094 L 23.738281 12.871094 C 24.582031 12.871094 25.273438 12.183594 25.273438 11.328125 C 25.273438 10.476562 24.582031 9.785156 23.738281 9.785156 L 17.609375 9.785156 C 16.765625 9.785156 16.082031 10.476562 16.082031 11.328125 C 16.082031 12.183594 16.765625 12.871094 17.609375 12.871094 " fill-opacity="1" fill-rule="nonzero"/><path fill="#040606" d="M 17.609375 19.039062 L 23.738281 19.039062 C 24.582031 19.039062 25.273438 18.351562 25.273438 17.5 C 25.273438 16.648438 24.582031 15.957031 23.738281 15.957031 L 17.609375 15.957031 C 16.765625 15.957031 16.082031 16.648438 16.082031 17.5 C 16.082031 18.351562 16.765625 19.039062 17.609375 19.039062 " fill-opacity="1" fill-rule="nonzero"/><path fill="#040606" d="M 17.609375 25.21875 L 26.800781 25.21875 C 27.648438 25.21875 28.335938 24.523438 28.335938 23.671875 C 28.335938 22.820312 27.648438 22.125 26.800781 22.125 L 17.609375 22.125 C 16.765625 22.125 16.082031 22.820312 16.082031 23.671875 C 16.082031 24.523438 16.765625 25.21875 17.609375 25.21875 " fill-opacity="1" fill-rule="nonzero"/><path fill="#040606" d="M 32.929688 29.84375 C 32.929688 28.988281 32.246094 28.304688 31.402344 28.304688 L 17.609375 28.304688 C 16.765625 28.304688 16.082031 28.988281 16.082031 29.84375 C 16.082031 30.695312 16.765625 31.382812 17.609375 31.382812 L 31.402344 31.382812 C 32.246094 31.382812 32.929688 30.695312 32.929688 29.84375 " fill-opacity="1" fill-rule="nonzero"/></svg>