<svg xmlns="http://www.w3.org/2000/svg" xmlns:xlink="http://www.w3.org/1999/xlink" width="40" zoomAndPan="magnify" viewBox="0 0 30 30.000001" height="40" preserveAspectRatio="xMidYMid meet" version="1.0"><defs><clipPath id="5cacabbbdf"><path d="M 0.484375 7 L 29.515625 7 L 29.515625 25 L 0.484375 25 Z M 0.484375 7 " clip-rule="nonzero"/></clipPath><clipPath id="b88a6efffc"><path d="M 12 3.484375 L 18 3.484375 L 18 8 L 12 8 Z M 12 3.484375 " clip-rule="nonzero"/></clipPath></defs><g clip-path="url(#5cacabbbdf)"><path fill="#030403" d="M 29.511719 8.304688 C 29.511719 8.46875 29.511719 8.632812 29.511719 8.796875 C 29.222656 9.234375 28.734375 9.429688 28.351562 9.753906 C 27.292969 10.328125 26.183594 10.714844 24.949219 10.605469 C 24.894531 10.601562 24.839844 10.597656 24.785156 10.59375 C 24.4375 10.492188 24.09375 10.390625 23.730469 10.28125 C 23.78125 10.640625 23.808594 10.972656 23.875 11.300781 C 24.003906 11.9375 24.023438 12.589844 24.199219 13.21875 C 24.203125 13.273438 24.207031 13.328125 24.210938 13.382812 C 24.214844 13.523438 24.191406 13.664062 24.28125 13.789062 C 24.292969 13.960938 24.25 14.136719 24.335938 14.296875 C 24.347656 14.320312 24.359375 14.347656 24.367188 14.375 L 24.359375 14.371094 C 24.375 14.515625 24.375 14.667969 24.410156 14.808594 C 24.640625 15.722656 24.867188 16.636719 25.121094 17.542969 C 25.304688 18.207031 25.394531 18.902344 25.6875 19.542969 C 25.640625 19.765625 25.804688 19.957031 25.792969 20.175781 C 25.777344 20.230469 25.804688 20.265625 25.851562 20.285156 C 25.859375 20.328125 25.867188 20.375 25.875 20.417969 C 26.144531 21.484375 26.417969 22.546875 26.691406 23.609375 C 26.691406 23.691406 26.691406 23.773438 26.691406 23.859375 C 26.605469 24.179688 26.457031 24.464844 26.199219 24.6875 C 26.113281 24.734375 26.027344 24.78125 25.941406 24.832031 C 25.019531 25.011719 24.492188 24.667969 24.28125 23.757812 C 24.21875 23.488281 24.125 23.222656 24.046875 22.953125 C 24.007812 22.527344 23.859375 22.132812 23.746094 21.726562 C 23.640625 21.257812 23.542969 20.789062 23.375 20.335938 C 23.238281 19.675781 23.089844 19.015625 22.871094 18.375 C 22.746094 17.816406 22.683594 17.242188 22.386719 16.730469 C 22.382812 16.652344 22.375 16.570312 22.367188 16.488281 C 22.386719 16.390625 22.382812 16.296875 22.304688 16.222656 C 22.292969 16.148438 22.28125 16.070312 22.273438 15.996094 C 22.265625 15.96875 22.257812 15.941406 22.25 15.914062 C 22.273438 15.871094 22.253906 15.859375 22.214844 15.863281 C 21.671875 15.828125 21.671875 15.828125 21.671875 16.335938 C 21.671875 18.722656 21.667969 21.105469 21.675781 23.492188 C 21.675781 23.828125 21.632812 24.144531 21.453125 24.429688 C 21.285156 24.585938 21.117188 24.738281 20.902344 24.828125 L 20.914062 24.839844 L 20.910156 24.835938 L 20.886719 24.847656 C 20.859375 24.851562 20.832031 24.855469 20.804688 24.859375 C 20.777344 24.867188 20.75 24.871094 20.726562 24.878906 C 19.914062 24.988281 19.3125 24.46875 19.3125 23.648438 C 19.308594 21.035156 19.332031 18.425781 19.296875 15.8125 C 19.285156 14.882812 19.082031 13.964844 18.902344 13.050781 C 18.894531 12.996094 18.890625 12.941406 18.886719 12.886719 C 18.855469 12.695312 18.828125 12.507812 18.800781 12.316406 C 18.816406 12.207031 18.824219 12.097656 18.765625 11.996094 C 18.675781 11.527344 18.714844 11.035156 18.492188 10.59375 C 18.488281 10.484375 18.484375 10.378906 18.480469 10.269531 C 18.472656 10.242188 18.464844 10.21875 18.460938 10.191406 C 18.371094 9.96875 18.074219 9.882812 18.054688 9.613281 C 18.304688 9.4375 18.558594 9.261719 18.898438 9.027344 C 18.476562 9.085938 18.265625 9.3125 18.007812 9.449219 C 17.671875 9.628906 17.5625 9.882812 17.5625 10.273438 C 17.582031 14.730469 17.578125 19.191406 17.578125 23.648438 C 17.578125 24.347656 17.175781 24.851562 16.5625 24.925781 C 15.894531 25.007812 15.421875 24.65625 15.226562 23.9375 C 15.230469 21.492188 15.230469 19.042969 15.230469 16.597656 C 15.230469 16.511719 15.289062 16.402344 15.164062 16.347656 C 14.855469 16.25 14.738281 16.359375 14.769531 16.679688 C 14.789062 16.878906 14.769531 17.085938 14.769531 17.289062 C 14.769531 19.398438 14.769531 21.507812 14.777344 23.613281 C 14.78125 24.042969 14.6875 24.414062 14.324219 24.6875 C 13.585938 25.234375 12.761719 24.914062 12.417969 23.941406 C 12.414062 23.910156 12.414062 23.882812 12.414062 23.855469 C 12.417969 23.71875 12.421875 23.582031 12.421875 23.445312 C 12.425781 19.03125 12.425781 14.613281 12.429688 10.199219 C 12.429688 9.695312 11.832031 9.148438 11.304688 9.160156 C 11.492188 9.300781 11.757812 9.40625 11.867188 9.601562 C 12.039062 9.890625 11.621094 9.96875 11.535156 10.183594 C 11.515625 10.234375 11.492188 10.285156 11.484375 10.335938 C 11.414062 10.859375 11.277344 11.375 11.277344 11.90625 C 11.269531 11.960938 11.261719 12.011719 11.253906 12.066406 C 11.195312 12.109375 11.191406 12.167969 11.203125 12.234375 C 11.195312 12.339844 11.1875 12.449219 11.175781 12.558594 C 11.109375 12.660156 11.101562 12.773438 11.117188 12.886719 C 11.109375 12.941406 11.105469 12.996094 11.101562 13.050781 C 10.960938 13.5625 10.914062 14.085938 10.863281 14.605469 C 10.859375 14.660156 10.851562 14.714844 10.847656 14.769531 C 10.785156 14.839844 10.773438 14.925781 10.789062 15.015625 C 10.78125 15.125 10.773438 15.230469 10.761719 15.339844 C 10.691406 15.433594 10.691406 15.542969 10.691406 15.652344 C 10.695312 16.859375 10.699219 18.066406 10.703125 19.273438 C 10.703125 19.683594 10.703125 20.09375 10.703125 20.5 C 10.703125 20.910156 10.703125 21.320312 10.703125 21.726562 C 10.703125 22.136719 10.703125 22.546875 10.703125 22.957031 C 10.652344 23.363281 10.753906 23.78125 10.617188 24.183594 C 10.597656 24.203125 10.59375 24.222656 10.601562 24.25 C 10.324219 24.65625 9.945312 24.890625 9.441406 24.921875 C 9.390625 24.90625 9.335938 24.890625 9.285156 24.875 C 9.226562 24.867188 9.167969 24.855469 9.113281 24.847656 C 8.539062 24.570312 8.335938 24.121094 8.347656 23.492188 C 8.378906 21.953125 8.359375 20.414062 8.359375 18.875 C 8.359375 17.964844 8.351562 17.050781 8.363281 16.140625 C 8.363281 15.949219 8.304688 15.851562 8.117188 15.847656 C 7.976562 15.847656 7.777344 15.746094 7.734375 15.960938 C 7.671875 16.246094 7.503906 16.507812 7.535156 16.816406 C 7.390625 17.214844 7.277344 17.625 7.214844 18.042969 C 7.195312 18.066406 7.191406 18.09375 7.207031 18.121094 C 7.191406 18.144531 7.179688 18.171875 7.164062 18.199219 C 7.148438 18.28125 7.132812 18.367188 7.113281 18.449219 C 6.800781 19.503906 6.519531 20.570312 6.292969 21.644531 C 6.125 22.066406 6.027344 22.507812 5.957031 22.953125 C 5.816406 23.417969 5.679688 23.878906 5.539062 24.34375 L 5.542969 24.339844 C 5.152344 24.8125 4.671875 25.015625 4.058594 24.835938 L 4.0625 24.835938 C 4.035156 24.816406 4.007812 24.800781 3.980469 24.78125 C 3.855469 24.6875 3.734375 24.597656 3.609375 24.503906 C 3.59375 24.484375 3.574219 24.464844 3.554688 24.445312 L 3.546875 24.429688 C 3.523438 24.402344 3.5 24.371094 3.476562 24.34375 C 3.464844 24.3125 3.453125 24.285156 3.441406 24.257812 C 3.425781 24.234375 3.410156 24.207031 3.394531 24.183594 C 3.242188 23.765625 3.402344 23.363281 3.46875 22.957031 C 3.488281 22.933594 3.492188 22.90625 3.476562 22.878906 C 3.492188 22.855469 3.503906 22.828125 3.519531 22.804688 C 3.527344 22.484375 3.746094 22.21875 3.734375 21.894531 C 3.921875 21.417969 4.015625 20.917969 4.128906 20.417969 C 4.332031 19.628906 4.53125 18.839844 4.734375 18.050781 C 4.886719 17.484375 5.050781 16.917969 5.195312 16.347656 C 5.460938 15.320312 5.753906 14.300781 5.804688 13.230469 C 5.921875 13.050781 5.878906 12.84375 5.890625 12.648438 C 5.964844 12.546875 5.96875 12.433594 5.953125 12.316406 C 5.957031 12.261719 5.964844 12.210938 5.972656 12.15625 C 6.042969 11.757812 6.105469 11.363281 6.183594 10.964844 C 6.308594 10.320312 6.289062 10.289062 5.640625 10.476562 C 5.5 10.519531 5.332031 10.46875 5.214844 10.59375 C 5.160156 10.597656 5.105469 10.601562 5.050781 10.605469 C 3.855469 10.699219 2.765625 10.367188 1.738281 9.792969 C 1.71875 9.769531 1.695312 9.765625 1.667969 9.773438 C 1.605469 9.683594 1.511719 9.636719 1.40625 9.605469 L 1.414062 9.609375 C 1.355469 9.515625 1.261719 9.472656 1.164062 9.4375 L 1.167969 9.441406 C 0.929688 9.242188 0.667969 9.0625 0.492188 8.796875 C 0.492188 8.632812 0.492188 8.46875 0.492188 8.304688 C 0.765625 7.882812 1.128906 7.714844 1.625 7.90625 C 1.765625 8.085938 1.953125 8.203125 2.15625 8.300781 C 2.800781 8.761719 3.488281 9.109375 4.300781 9.136719 C 4.558594 9.144531 4.730469 9.210938 4.824219 9.46875 C 4.886719 9.636719 5.050781 9.730469 5.226562 9.796875 C 5.710938 9.984375 6.449219 9.671875 6.808594 9.046875 C 6.484375 9.25 6.234375 9.402344 5.984375 9.558594 C 5.777344 9.691406 5.570312 9.738281 5.324219 9.644531 C 4.746094 9.414062 4.691406 8.816406 5.214844 8.304688 C 5.332031 8.230469 5.445312 8.15625 5.5625 8.082031 C 6.0625 7.835938 6.550781 7.5625 7.085938 7.382812 C 7.34375 7.292969 7.457031 7.320312 7.597656 7.570312 C 8.375 8.960938 10.1875 9.195312 11.308594 8.070312 C 11.507812 7.867188 11.632812 7.441406 12.054688 7.792969 C 12.078125 7.8125 12.191406 7.722656 12.265625 7.6875 C 12.511719 7.570312 12.761719 7.457031 13.003906 7.335938 C 13.199219 7.242188 13.335938 7.269531 13.511719 7.417969 C 14.335938 8.113281 15.519531 8.171875 16.367188 7.511719 C 16.671875 7.273438 16.894531 7.292969 17.199219 7.417969 C 17.53125 7.558594 17.820312 7.898438 18.253906 7.664062 C 18.378906 7.59375 18.421875 7.753906 18.488281 7.835938 C 19.597656 9.222656 21.574219 9.070312 22.4375 7.519531 C 22.554688 7.304688 22.65625 7.289062 22.851562 7.367188 C 23.179688 7.496094 23.515625 7.617188 23.84375 7.742188 C 24.15625 7.929688 24.472656 8.117188 24.785156 8.304688 C 24.832031 8.355469 24.878906 8.402344 24.925781 8.449219 C 25.210938 8.734375 25.246094 9.097656 25.019531 9.398438 C 24.789062 9.710938 24.390625 9.785156 24.035156 9.574219 C 23.8125 9.441406 23.601562 9.285156 23.371094 9.164062 C 23.261719 9.101562 23.144531 8.957031 22.96875 9.070312 C 23.296875 9.292969 23.597656 9.511719 23.917969 9.710938 C 24.375 9.992188 24.964844 9.90625 25.171875 9.46875 C 25.308594 9.179688 25.507812 9.152344 25.746094 9.136719 C 26.539062 9.085938 27.214844 8.75 27.847656 8.304688 C 27.878906 8.28125 27.910156 8.261719 27.941406 8.238281 C 28.136719 8.113281 28.328125 7.992188 28.523438 7.867188 C 28.554688 7.851562 28.589844 7.835938 28.625 7.820312 C 28.726562 7.820312 28.828125 7.820312 28.929688 7.816406 C 29.191406 7.898438 29.351562 8.101562 29.511719 8.304688 Z M 29.511719 8.304688 " fill-opacity="1" fill-rule="evenodd"/></g><path fill="#030403" d="M 18.390625 5.605469 C 18.757812 4.90625 19.339844 4.492188 20.121094 4.355469 C 20.164062 4.351562 20.207031 4.351562 20.25 4.347656 C 20.296875 4.347656 20.34375 4.351562 20.390625 4.351562 C 21.414062 4.402344 22.0625 4.949219 22.445312 5.855469 C 22.628906 6.785156 22.425781 7.59375 21.636719 8.175781 C 20.574219 8.960938 18.949219 8.664062 18.308594 7.160156 C 18.316406 7.105469 18.285156 7.082031 18.238281 7.066406 C 18.238281 7.042969 18.234375 7.019531 18.226562 6.996094 C 18.242188 6.527344 18.191406 6.050781 18.390625 5.605469 Z M 18.390625 5.605469 " fill-opacity="1" fill-rule="evenodd"/><g clip-path="url(#b88a6efffc)"><path fill="#030403" d="M 14.589844 3.558594 C 14.617188 3.554688 14.644531 3.554688 14.667969 3.546875 C 15.503906 3.480469 16.191406 3.765625 16.738281 4.382812 C 16.757812 4.410156 16.777344 4.441406 16.796875 4.46875 C 17.019531 4.871094 17.160156 5.300781 17.164062 5.765625 C 17.15625 5.847656 17.152344 5.929688 17.148438 6.011719 C 17.082031 6.082031 17.066406 6.164062 17.082031 6.257812 C 16.78125 7.023438 16.277344 7.570312 15.429688 7.730469 C 14.386719 7.929688 13.441406 7.433594 13.019531 6.480469 C 12.988281 6.40625 12.953125 6.332031 12.921875 6.261719 C 12.929688 6.167969 12.917969 6.082031 12.851562 6.011719 C 12.847656 5.929688 12.839844 5.847656 12.835938 5.765625 C 12.90625 4.59375 13.410156 3.960938 14.589844 3.558594 Z M 14.589844 3.558594 " fill-opacity="1" fill-rule="evenodd"/></g><path fill="#030403" d="M 9.195312 4.371094 C 9.5 4.375 9.804688 4.378906 10.105469 4.378906 C 10.320312 4.464844 10.535156 4.550781 10.746094 4.632812 C 11.082031 4.890625 11.367188 5.1875 11.589844 5.546875 C 11.652344 5.785156 11.71875 6.019531 11.78125 6.257812 C 11.726562 7.425781 11.265625 8.152344 10.375 8.464844 C 9.410156 8.804688 8.289062 8.414062 7.796875 7.570312 C 7.253906 6.632812 7.457031 5.5 8.289062 4.824219 C 8.371094 4.757812 8.457031 4.691406 8.539062 4.625 C 8.757812 4.542969 8.976562 4.457031 9.195312 4.371094 Z M 9.195312 4.371094 " fill-opacity="1" fill-rule="evenodd"/></svg>