<?xml version="1.0" standalone="no"?>
<!DOCTYPE svg PUBLIC "-//W3C//DTD SVG 20010904//EN"
 "http://www.w3.org/TR/2001/REC-SVG-20010904/DTD/svg10.dtd">
<svg version="1.0" xmlns="http://www.w3.org/2000/svg"
 width="64.000000pt" height="64.000000pt" viewBox="0 0 64.000000 64.000000"
 preserveAspectRatio="xMidYMid meet">

<g transform="translate(0.000000,64.000000) scale(0.100000,-0.100000)"
fill="#000000" stroke="none">
<path d="M0 410 l0 -230 69 0 69 0 6 -44 c7 -41 9 -44 44 -50 101 -18 98 -18
79 -6 -10 6 -31 12 -48 12 -16 1 -32 4 -34 8 -4 6 124 6 135 0 16 -9 37 -3 49
14 14 18 15 17 25 -24 l11 -44 95 -13 c52 -7 105 -15 118 -18 l22 -5 0 315 0
315 -320 0 -320 0 0 -230z m378 147 c21 -17 42 -63 42 -92 0 -35 -15 -31 -16
5 -1 16 -10 42 -20 57 l-19 28 -3 -54 c-2 -32 1 -57 8 -61 7 -5 10 -53 8 -148
-2 -112 -5 -139 -15 -130 -7 6 -13 26 -13 45 0 20 -4 32 -10 28 -5 -3 -10 0
-10 7 0 7 -12 0 -27 -16 -16 -17 -29 -24 -31 -18 -2 7 -12 12 -23 12 -14 0
-19 7 -19 25 0 16 -6 25 -15 25 -8 0 -15 -7 -15 -15 0 -29 -19 -14 -26 20 -3
19 -10 38 -15 41 -5 3 -9 31 -9 63 l0 59 35 6 c28 6 35 11 35 31 0 66 48 109
110 99 19 -3 41 -11 48 -17z m111 -144 c0 -16 -3 -21 -6 -13 -3 8 -12 21 -21
28 -14 10 -13 12 6 12 18 0 22 -6 21 -27z"/>
<path d="M266 541 c-10 -11 -20 -38 -23 -60 -5 -33 -3 -41 11 -41 12 0 16 10
16 42 0 24 7 49 17 60 9 10 12 18 6 18 -5 0 -18 -9 -27 -19z"/>
<path d="M313 545 c-18 -13 -23 -26 -23 -62 0 -37 3 -44 16 -39 9 3 20 6 24 6
14 0 24 69 14 91 -8 18 -11 18 -31 4z"/>
<path d="M341 398 c0 -10 -5 -18 -11 -18 -5 0 -10 -6 -10 -14 0 -8 -11 -28
-25 -44 -14 -17 -25 -34 -25 -38 0 -5 11 5 25 21 l24 30 2 -25 c1 -19 4 -14
15 20 8 25 13 54 11 65 -3 16 -5 16 -6 3z"/>
<path d="M237 384 c-11 -11 -9 -56 3 -49 6 3 10 1 10 -6 0 -7 2 -10 4 -8 3 2
1 19 -2 37 -4 19 -10 30 -15 26z"/>
<path d="M308 63 c6 -2 18 -2 25 0 6 3 1 5 -13 5 -14 0 -19 -2 -12 -5z"/>
</g>
</svg>
