<svg xmlns="http://www.w3.org/2000/svg" xmlns:xlink="http://www.w3.org/1999/xlink" width="40" zoomAndPan="magnify" viewBox="0 0 30 30.000001" height="40" preserveAspectRatio="xMidYMid meet" version="1.0"><defs><clipPath id="c0be15f84c"><path d="M 2.785156 2.300781 L 27.460938 2.300781 L 27.460938 26.976562 L 2.785156 26.976562 Z M 2.785156 2.300781 " clip-rule="nonzero"/></clipPath></defs><g clip-path="url(#c0be15f84c)"><path fill="#000000" d="M 18.644531 20.347656 L 24.691406 26.386719 C 25.289062 26.988281 26.261719 26.984375 26.859375 26.386719 C 27.457031 25.789062 27.457031 24.816406 26.859375 24.21875 L 20.816406 18.179688 C 22.035156 16.527344 22.75 14.488281 22.75 12.28125 C 22.75 6.773438 18.28125 2.300781 12.773438 2.300781 C 7.265625 2.300781 2.792969 6.773438 2.792969 12.28125 C 2.792969 17.789062 7.265625 22.257812 12.773438 22.257812 C 14.96875 22.257812 16.996094 21.546875 18.644531 20.347656 Z M 12.773438 5.367188 C 16.585938 5.367188 19.683594 8.464844 19.683594 12.28125 C 19.683594 16.09375 16.585938 19.191406 12.773438 19.191406 C 8.957031 19.191406 5.859375 16.09375 5.859375 12.28125 C 5.859375 8.464844 8.957031 5.367188 12.773438 5.367188 Z M 12.773438 5.367188 " fill-opacity="1" fill-rule="evenodd"/></g></svg>