<svg xmlns="http://www.w3.org/2000/svg" xmlns:xlink="http://www.w3.org/1999/xlink" width="40" zoomAndPan="magnify" viewBox="0 0 30 30.000001" height="40" preserveAspectRatio="xMidYMid meet" version="1.0"><defs><clipPath id="dd60fcb4fd"><path d="M 3.632812 0 L 26.132812 0 L 26.132812 28.742188 L 3.632812 28.742188 Z M 3.632812 0 " clip-rule="nonzero"/></clipPath></defs><g clip-path="url(#dd60fcb4fd)"><path fill="#000000" d="M 26.132812 26.550781 C 26.132812 18.804688 21.09375 12.527344 14.882812 12.527344 C 8.675781 12.527344 3.636719 18.804688 3.636719 26.550781 C 3.636719 27.757812 8.675781 28.742188 14.882812 28.742188 C 21.09375 28.742188 26.132812 27.757812 26.132812 26.550781 Z M 14.882812 -0.289062 C 18.269531 -0.289062 21.015625 2.453125 21.015625 5.84375 C 21.015625 9.230469 18.269531 11.976562 14.882812 11.976562 C 11.496094 11.976562 8.753906 9.230469 8.753906 5.84375 C 8.753906 2.453125 11.496094 -0.289062 14.882812 -0.289062 Z M 14.882812 -0.289062 " fill-opacity="1" fill-rule="evenodd"/></g></svg>