<svg xmlns="http://www.w3.org/2000/svg" xmlns:xlink="http://www.w3.org/1999/xlink" width="40" zoomAndPan="magnify" viewBox="0 0 30 30.000001" height="40" preserveAspectRatio="xMidYMid meet" version="1.0"><defs><clipPath id="fe69d2712c"><path d="M 0.484375 0.328125 L 29.515625 0.328125 L 29.515625 28.632812 L 0.484375 28.632812 Z M 0.484375 0.328125 " clip-rule="nonzero"/></clipPath></defs><g clip-path="url(#fe69d2712c)"><path fill="#040606" d="M 27.132812 23.917969 C 27.132812 25.476562 25.863281 26.746094 24.296875 26.746094 L 14.835938 26.746094 C 15.429688 25.957031 15.785156 24.976562 15.785156 23.917969 L 15.785156 22.972656 L 27.132812 22.972656 Z M 13.890625 22.027344 L 13.890625 23.917969 C 13.890625 25.476562 12.621094 26.746094 11.054688 26.746094 C 9.492188 26.746094 8.21875 25.476562 8.21875 23.917969 L 8.21875 4.101562 C 8.21875 3.410156 8.015625 2.773438 7.691406 2.214844 L 23.351562 2.214844 C 23.871094 2.214844 24.296875 2.636719 24.296875 3.15625 L 24.296875 6.136719 C 23.964844 6.238281 23.644531 6.386719 23.351562 6.582031 C 22.769531 6.195312 22.097656 5.988281 21.390625 5.988281 C 20.382812 5.988281 19.441406 6.410156 18.734375 7.179688 C 17.332031 8.710938 17.332031 11.199219 18.734375 12.726562 L 22.652344 17.003906 C 22.832031 17.199219 23.082031 17.3125 23.351562 17.3125 C 23.617188 17.3125 23.871094 17.199219 24.046875 17.003906 L 24.296875 16.734375 L 24.296875 21.085938 L 14.839844 21.085938 C 14.316406 21.085938 13.890625 21.507812 13.890625 22.027344 Z M 2.542969 4.101562 C 2.542969 3.0625 3.390625 2.214844 4.433594 2.214844 C 5.476562 2.214844 6.328125 3.0625 6.328125 4.101562 L 6.328125 9.761719 L 2.542969 9.761719 Z M 26.570312 11.453125 L 23.351562 14.96875 L 20.132812 11.453125 C 19.386719 10.640625 19.386719 9.265625 20.132812 8.453125 C 20.472656 8.078125 20.917969 7.875 21.390625 7.875 C 21.863281 7.875 22.308594 8.078125 22.652344 8.453125 C 23.011719 8.84375 23.691406 8.84375 24.050781 8.453125 C 24.390625 8.078125 24.839844 7.875 25.308594 7.875 C 25.78125 7.875 26.226562 8.078125 26.570312 8.453125 C 27.316406 9.265625 27.316406 10.640625 26.570312 11.453125 Z M 28.078125 21.085938 L 26.1875 21.085938 L 26.1875 14.667969 L 27.964844 12.726562 C 29.367188 11.199219 29.367188 8.710938 27.964844 7.179688 C 27.472656 6.640625 26.859375 6.28125 26.1875 6.109375 L 26.1875 3.15625 C 26.1875 1.59375 24.914062 0.328125 23.351562 0.328125 L 4.433594 0.328125 C 2.347656 0.328125 0.652344 2.019531 0.652344 4.101562 L 0.652344 10.707031 C 0.652344 11.226562 1.074219 11.648438 1.597656 11.648438 L 6.328125 11.648438 L 6.328125 23.917969 C 6.328125 26.515625 8.449219 28.632812 11.054688 28.632812 C 11.277344 28.632812 11.5 28.617188 11.710938 28.585938 C 11.804688 28.617188 11.902344 28.632812 12.003906 28.632812 L 24.296875 28.632812 C 26.90625 28.632812 29.027344 26.515625 29.027344 23.917969 L 29.027344 22.027344 C 29.027344 21.507812 28.601562 21.085938 28.078125 21.085938 " fill-opacity="1" fill-rule="nonzero"/></g><path fill="#040606" d="M 11.054688 7.875 L 14.839844 7.875 C 15.359375 7.875 15.785156 7.453125 15.785156 6.929688 C 15.785156 6.410156 15.359375 5.988281 14.839844 5.988281 L 11.054688 5.988281 C 10.535156 5.988281 10.109375 6.410156 10.109375 6.929688 C 10.109375 7.453125 10.535156 7.875 11.054688 7.875 " fill-opacity="1" fill-rule="nonzero"/><path fill="#040606" d="M 11.054688 11.648438 L 14.839844 11.648438 C 15.359375 11.648438 15.785156 11.226562 15.785156 10.707031 C 15.785156 10.183594 15.359375 9.761719 14.839844 9.761719 L 11.054688 9.761719 C 10.535156 9.761719 10.109375 10.183594 10.109375 10.707031 C 10.109375 11.226562 10.535156 11.648438 11.054688 11.648438 " fill-opacity="1" fill-rule="nonzero"/><path fill="#040606" d="M 11.054688 15.425781 L 16.730469 15.425781 C 17.253906 15.425781 17.679688 15 17.679688 14.480469 C 17.679688 13.960938 17.253906 13.535156 16.730469 13.535156 L 11.054688 13.535156 C 10.535156 13.535156 10.109375 13.960938 10.109375 14.480469 C 10.109375 15 10.535156 15.425781 11.054688 15.425781 " fill-opacity="1" fill-rule="nonzero"/><path fill="#040606" d="M 20.515625 18.253906 C 20.515625 17.730469 20.089844 17.3125 19.570312 17.3125 L 11.054688 17.3125 C 10.535156 17.3125 10.109375 17.730469 10.109375 18.253906 C 10.109375 18.773438 10.535156 19.195312 11.054688 19.195312 L 19.570312 19.195312 C 20.089844 19.195312 20.515625 18.773438 20.515625 18.253906 " fill-opacity="1" fill-rule="nonzero"/></svg>